<?xml version="1.0" encoding="UTF-8" standalone="no"?>
<!-- Generator: Adobe Illustrator 27.5.0, SVG Export Plug-In . SVG Version: 6.00 Build 0)  -->

<svg
   version="1.1"
   x="0px"
   y="0px"
   viewBox="0 0 850 850"
   xmlns="http://www.w3.org/2000/svg"
   xmlns:svg="http://www.w3.org/2000/svg">
<!-- <g
   id="background">
	<rect
   style="fill:#FFFFFF;"
   width="2200"
   height="2200"
   id="rect1" />
</g> -->
<g
   id="g3"
   transform="translate(-212.35521,-218.01802)">
		<circle
   style="fill:#1fdd59"
   cx="635.21698"
   cy="640.487"
   r="407.44699"
   id="circle1" />
		<g
   id="g2">
			<path
   style="fill:#ffffff"
   d="m 767.798,620.568 c 3.706,1.71 6.919,4.15 9.227,7.629 4.29,6.458 4.116,15.213 0.842,22.242 -3.003,6.451 -8.294,11.582 -14.246,15.526 3.706,1.71 6.92,4.15 9.227,7.629 4.29,6.458 4.116,15.213 0.845,22.242 -2.868,6.153 -7.812,11.104 -13.428,14.973 3.655,1.463 6.838,3.662 9.047,6.987 3.628,5.464 3.329,12.801 0.713,18.814 -6.139,14.114 -25.9,26.741 -70.145,26.741 h -71.995 c -15.979,0 -33.275,-5.919 -47.176,-17.134 -6.02,-4.857 -9.528,-12.171 -9.528,-19.907 V 603.68 c 0,-7.186 3.065,-13.998 8.337,-18.882 16.258,-15.061 27.65,-39.578 33.778,-59.966 8.705,-28.954 -7.836,-57.82 16.52,-63.535 24.264,-5.691 36.094,15.536 40.57,28.38 10.272,29.494 7.418,63.267 -7.476,90.697 35.507,-7.469 54.384,-9.224 87.697,-9.224 11.356,0 24.315,2.189 30.596,11.647 4.286,6.461 4.113,15.213 0.842,22.242 -3.004,6.455 -8.294,11.583 -14.247,15.529 z"
   id="path1" />
			<path
   style="fill:#ffffff"
   d="m 543.876,750.42 h -47.029 c -7.772,0 -14.073,-6.301 -14.073,-14.073 V 599.108 c 0,-7.772 6.301,-14.073 14.073,-14.073 h 47.029 c 7.772,0 14.073,6.301 14.073,14.073 v 137.239 c 0,7.773 -6.301,14.073 -14.073,14.073 z"
   id="path2" />
		</g>
	</g>
</svg>
