<?xml version="1.0" encoding="UTF-8" standalone="no"?>
<svg
   xml:space="preserve"
   width="512"
   height="273"
   shape-rendering="geometricPrecision"
   text-rendering="geometricPrecision"
   image-rendering="optimizeQuality"
   fill-rule="evenodd"
   clip-rule="evenodd"
   viewBox="0 0 512 273.23"
   version="1.1"
   id="svg1"
   xmlns="http://www.w3.org/2000/svg">
    <path
   fill-rule="nonzero"
   d="m 262.89,4.59 36.63,85.78 92.92,8.34 c 4.1,0.35 7.14,3.96 6.78,8.06 -0.17,2 -1.12,3.74 -2.52,4.96 l -70.29,61.38 20.79,90.99 c 0.93,4.01 -1.59,8.02 -5.61,8.94 -2.05,0.47 -4.11,0.04 -5.75,-1.03 L 256,224.27 175.9,272.16 c -3.53,2.11 -8.1,0.96 -10.22,-2.58 -0.99331,-1.6434 -1.30549,-3.60977 -0.87,-5.48 l -0.01,-0.01 20.8,-90.98 -70.3,-61.38 c -3.1038,-2.709 -3.41751,-7.42365 -0.7,-10.52 1.32421,-1.511693 3.20313,-2.424102 5.21,-2.53 l 92.67,-8.31 36.65,-85.82 c 1.62,-3.8 6,-5.57 9.79,-3.95 1.87,0.79 3.25,2.26 3.97,3.99 z"
   id="path1"/>
</svg>
