<?xml version="1.0" encoding="utf-8"?>
<svg version="1.1" xmlns="http://www.w3.org/2000/svg" x="0px" y="0px"
	 viewBox="0 0 500 500" style="enable-background:new 0 0 500 500;" xml:space="preserve">
<g id="OBJECTS">
	<g>
		<path style="opacity:0.3;fill:#1F1E21;" d="M135.868,433.848L36.91,262.447c-1.557-2.697-1.557-6.019,0-8.715L135.868,82.33
			c1.557-2.697,4.434-4.358,7.548-4.358h197.917c3.114,0,5.991,1.661,7.548,4.358l98.958,171.401c1.557,2.697,1.557,6.019,0,8.715
			L348.88,433.848c-1.557,2.697-4.434,4.358-7.548,4.358H143.416C140.302,438.205,137.425,436.544,135.868,433.848z"/>
		<g>
			<g>
				<g>
					<g>
						<path style="fill:#F5F6F6;" d="M151.12,417.67L52.161,246.269c-1.557-2.697-1.557-6.019,0-8.715L151.12,66.152
							c1.557-2.696,4.434-4.358,7.548-4.358h197.917c3.114,0,5.991,1.661,7.548,4.358l98.958,171.401
							c1.557,2.697,1.557,6.019,0,8.715L364.132,417.67c-1.557,2.697-4.434,4.358-7.548,4.358H158.667
							C155.554,422.027,152.676,420.366,151.12,417.67z"/>
					</g>
				</g>
			</g>
		</g>
		<g>
			<path style="fill:#C41520;" d="M354.581,84.107l88.188,152.742c1.809,3.132,1.809,6.992,0,10.124l-88.188,152.742
				c-1.808,3.132-5.151,5.062-8.767,5.062H169.438c-3.617,0-6.959-1.93-8.767-5.062L72.483,246.973
				c-1.809-3.132-1.809-6.992,0-10.124l88.188-152.742c1.808-3.132,5.15-5.062,8.767-5.062h176.376
				C349.431,79.045,352.773,80.975,354.581,84.107z"/>
			<path style="opacity:0.5;fill:#FFFFFF;" d="M442.772,246.971l-0.79,1.36l-91.39-158.29c-2-3.45-5.69-5.58-9.68-5.58h-180.44
				l0.2-0.35c1.81-3.14,5.15-5.07,8.77-5.07h176.37c3.62,0,6.96,1.93,8.77,5.07l88.19,152.74
				C444.582,239.981,444.582,243.841,442.772,246.971z"/>
			<g>
				<g>
					<g>
						<g>
							<g>
								
									<text transform="matrix(1 0 0 1 188.2233 388.7535)" style="fill:#F5F6F6; font-family:'BebasNeueBold'; font-size:55px;">STOP</text>
							</g>
						</g>
					</g>
				</g>
				<g>
					<path style="fill:#F5F6F6;" d="M348.048,199.541l-0.963-0.725c-11.502-8.661-27.846-3.196-36.508,8.305l-7.483,9.936v-86.307
						c0-7.151-5.595-13.285-12.744-13.416c-7.284-0.133-13.231,5.732-13.231,12.985v67.889c0,0.939-0.761,1.701-1.701,1.701l0,0
						c-0.939,0-1.701-0.761-1.701-1.701v-86.476c0-7.151-5.595-13.285-12.744-13.416c-7.284-0.133-13.231,5.732-13.231,12.985
						v86.906c0,0.939-0.761,1.701-1.701,1.701h-0.773c-0.939,0-1.701-0.761-1.701-1.701v-70.241c0-7.151-5.595-13.285-12.744-13.416
						c-7.284-0.133-13.23,5.731-13.23,12.985v70.672c0,0.939-0.762,1.701-1.701,1.701h-0.155c-0.939,0-1.701-0.761-1.701-1.701
						v-44.112c0-7.151-5.595-13.285-12.745-13.416c-7.284-0.133-13.23,5.732-13.23,12.985v72.977v14.534v4.535
						c0,30.798,24.966,55.764,55.764,55.764h17.11c24.253,0,44.879-15.487,52.551-37.11c3.898-10.987,9.74-21.183,16.753-30.496
						l19.076-25.33C351.451,205.705,350.883,201.676,348.048,199.541z"/>
				</g>
			</g>
		</g>
	</g>
</g>
</svg>
