<?xml version="1.0" encoding="UTF-8" standalone="no"?>
<svg
   version="1.1"
   id="Layer_1"
   x="0px"
   y="0px"
   viewBox="0 0 270 250"
   style="enable-background:new 0 0 470 450;"
   xml:space="preserve"
   xmlns="http://www.w3.org/2000/svg">
<defs
   id="defs1">
	<filter
   id="Adobe_OpacityMaskFilter"
   filterUnits="userSpaceOnUse"
   x="158.584"
   y="384.237"
   width="270.416"
   height="19.007">
		<feColorMatrix
   type="matrix"
   values="1 0 0 0 0  0 1 0 0 0  0 0 1 0 0  0 0 0 1 0"
   id="feColorMatrix1" />
	</filter>
</defs>
<mask
   maskUnits="userSpaceOnUse"
   x="158.584"
   y="384.237"
   width="270.416"
   height="19.007"
   id="mask5">
	<g
   style="filter:url(#Adobe_OpacityMaskFilter);"
   id="g5">
		<defs
   id="defs2">
			
				<filter
   id="Adobe_OpacityMaskFilter_00000015338436957242769940000018347248271254552253_"
   filterUnits="userSpaceOnUse"
   x="158.584"
   y="384.237"
   width="270.416"
   height="19.007">
				<feFlood
   style="flood-color:white;flood-opacity:1"
   result="back"
   id="feFlood1" />
				<feBlend
   in="SourceGraphic"
   in2="back"
   mode="normal"
   id="feBlend1" />
			</filter>
		</defs>
		<mask
   maskUnits="userSpaceOnUse"
   x="158.584"
   y="384.237"
   width="270.416"
   height="19.007"
   id="SVGID_1_">
			<g
   style="filter:url(#Adobe_OpacityMaskFilter_00000015338436957242769940000018347248271254552253_);"
   id="g2">
			</g>
		</mask>
		
			<radialGradient
   id="SVGID_00000023261131172213888370000011738511271730971563_"
   cx="153.9539"
   cy="518.7454"
   r="80.5333"
   gradientTransform="matrix(1.679 0 0 0.118 35.3036 332.5286)"
   gradientUnits="userSpaceOnUse">
			<stop
   offset="0"
   style="stop-color:#212121"
   id="stop2" />
			<stop
   offset="0.0206"
   style="stop-color:#202020"
   id="stop3" />
			<stop
   offset="0.6236"
   style="stop-color:#090909"
   id="stop4" />
			<stop
   offset="1"
   style="stop-color:#000000"
   id="stop5" />
		</radialGradient>
		
			<ellipse
   style="mask:url(#SVGID_1_);fill:url(#SVGID_00000023261131172213888370000011738511271730971563_);"
   cx="293.792"
   cy="393.741"
   rx="135.208"
   ry="9.503"
   mask="url(#SVGID_1_)"
   id="ellipse5" />
	</g>
</mask>

<g
   id="g13">
	
		<linearGradient
   id="SVGID_00000016046805585001173790000012480956092044538288_"
   gradientUnits="userSpaceOnUse"
   x1="293.7588"
   y1="366.1322"
   x2="293.7588"
   y2="131.4374"
   gradientTransform="translate(-159.84556,-127.41313)">
		<stop
   offset="0"
   style="stop-color:#F5BF00"
   id="stop6" />
		<stop
   offset="0.5123"
   style="stop-color:#FFD028"
   id="stop7" />
		<stop
   offset="1"
   style="stop-color:#FFF3C4"
   id="stop8" />
	</linearGradient>
	<path
   style="fill:url(#SVGID_00000016046805585001173790000012480956092044538288_)"
   d="m 39.14944,238.71887 c -14.517,0 -26.105,-5.648 -31.7909998,-15.496 -5.685,-9.848 -4.784,-22.707 2.475,-35.28 L 104.59744,23.806873 c 7.259,-12.573 17.944,-19.7830004 29.315,-19.7830004 11.371,0 22.056,7.2110004 29.315,19.7830004 l 94.764,164.135997 c 7.259,12.573 8.16,25.432 2.475,35.28 -5.685,9.848 -17.273,15.496 -31.79,15.496 h -189.527 z"
   id="path8" />
	<g
   id="g10"
   transform="translate(-159.84556,-127.41313)">
		<g
   id="g9">
			<path
   style="fill:#8c7100"
   d="m 293.759,132.437 c 11.004,0 21.374,7.029 28.449,19.283 l 94.764,164.136 c 7.075,12.255 7.977,24.749 2.475,34.28 -5.502,9.53 -16.773,14.996 -30.924,14.996 H 198.995 c -14.15,0 -25.422,-5.466 -30.925,-14.996 -5.502,-9.53 -4.6,-22.025 2.475,-34.28 L 265.309,151.72 c 7.076,-12.254 17.445,-19.283 28.45,-19.283 z m 0,-1 c -11.371,0 -22.056,7.211 -29.315,19.783 L 169.68,315.357 c -7.259,12.573 -8.161,25.432 -2.475,35.28 5.686,9.848 17.273,15.496 31.791,15.496 h 189.528 c 14.517,0 26.105,-5.648 31.79,-15.496 5.685,-9.848 4.784,-22.707 -2.475,-35.28 L 323.075,151.221 c -7.26,-12.573 -17.945,-19.784 -29.316,-19.784 z"
   id="path9" />
		</g>
	</g>
	<g
   id="g12"
   transform="translate(-159.84556,-127.41313)">
		<g
   id="g11">
			<path
   d="m 293.759,147.727 c 5.474,0 10.875,4.133 15.208,11.639 l 47.382,82.068 47.382,82.068 c 4.333,7.505 5.212,14.25 2.475,18.99 -2.737,4.741 -9.017,7.351 -17.684,7.351 h -94.764 -94.764 c -8.666,0 -14.947,-2.611 -17.684,-7.351 -2.737,-4.74 -1.858,-11.485 2.475,-18.99 l 47.382,-82.068 47.382,-82.068 c 4.335,-7.506 9.736,-11.639 15.21,-11.639 z m 0,-6 c -7.385,0 -14.77,4.88 -20.404,14.639 l -47.382,82.068 -47.382,82.068 c -11.269,19.518 -2.134,35.341 20.404,35.341 h 94.764 94.764 c 22.538,0 31.673,-15.823 20.404,-35.341 l -47.382,-82.068 -47.382,-82.068 c -5.634,-9.759 -13.019,-14.639 -20.404,-14.639 z"
   id="path10" />
		</g>
	</g>
	<path
   d="m 133.62444,201.91587 c -6.572,0 -10.989,-4.648 -10.989,-11.566 0,-7.026 4.464,-11.566 11.374,-11.566 6.867,0 11.047,4.365 11.182,11.676 -0.001,6.916 -4.391,11.456 -11.182,11.456 h -0.385 z m -6.606,-36.976 -4.204,-86.627997 c -0.168,-3.471 1.954,-7.778 5.088,-8.773 1.958,-0.621 3.904,-0.929 5.858,-0.929 1.989,0 4.034,0.333 6.123,0.996 3.278,1.039 5.533,5.357 5.365,8.828 l -4.198,86.505997 c -0.168,3.471 -3.122,6.285 -6.598,6.285 h -0.837 c -3.475,0 -6.428,-2.814 -6.597,-6.285 z"
   id="path12" />
	
		<linearGradient
   id="SVGID_00000060749336541008653140000005150375415975127189_"
   gradientUnits="userSpaceOnUse"
   x1="268.83179"
   y1="325.80264"
   x2="267.67349"
   y2="136.5822">
		<stop
   offset="0"
   style="stop-color:#141414"
   id="stop12" />
		<stop
   offset="1"
   style="stop-color:#5C5C5C"
   id="stop13" />
	</linearGradient>
	
</g>

</svg>
